<?xml version="1.0" standalone="no"?>
<!DOCTYPE svg PUBLIC "-//W3C//DTD SVG 20010904//EN"
 "http://www.w3.org/TR/2001/REC-SVG-20010904/DTD/svg10.dtd">
<svg version="1.0" xmlns="http://www.w3.org/2000/svg"
 width="582.000000pt" height="582.000000pt" viewBox="0 0 582.000000 582.000000"
 preserveAspectRatio="xMidYMid meet">
<metadata>
Created by potrace 1.14, written by Peter Selinger 2001-2017
</metadata>
<g transform="translate(0.000000,582.000000) scale(0.100000,-0.100000)"
fill="#000000" stroke="none">
<path d="M210 4555 c-68 -27 -84 -37 -82 -52 6 -38 173 -362 231 -449 242
-365 560 -509 1051 -475 133 9 135 9 172 -15 76 -49 183 -233 287 -494 46
-115 182 -521 396 -1180 80 -247 175 -512 223 -622 l21 -48 400 0 399 0 37 88
c68 164 163 436 313 907 83 259 173 533 200 610 150 426 277 673 379 739 37
24 40 24 173 16 334 -21 576 34 776 175 83 59 202 189 275 299 58 87 225 411
231 449 2 15 -15 25 -87 53 -81 31 -91 33 -100 18 -189 -312 -342 -435 -597
-480 -138 -25 -405 -22 -575 5 -157 25 -228 26 -331 5 -196 -40 -356 -174
-432 -362 -14 -37 -168 -462 -341 -944 -172 -483 -317 -874 -320 -870 -4 4
-41 102 -82 217 -376 1054 -584 1620 -614 1674 -53 94 -153 191 -246 235 -142
69 -269 81 -487 46 -141 -23 -415 -28 -538 -10 -244 34 -427 163 -576 404 -33
53 -62 96 -65 95 -3 -1 -44 -16 -91 -34z"/>
</g>
</svg>
