<?xml version="1.0" standalone="no"?>
<!DOCTYPE svg PUBLIC "-//W3C//DTD SVG 20010904//EN"
 "http://www.w3.org/TR/2001/REC-SVG-20010904/DTD/svg10.dtd">
<svg version="1.0" xmlns="http://www.w3.org/2000/svg"
 width="582.000000pt" height="582.000000pt" viewBox="0 0 582.000000 582.000000"
 preserveAspectRatio="xMidYMid meet">
<metadata>
Created by potrace 1.14, written by Peter Selinger 2001-2017
</metadata>
<g transform="translate(0.000000,582.000000) scale(0.100000,-0.100000)"
fill="#000000" stroke="none">
<path d="M215 4554 c-61 -24 -81 -37 -83 -53 -2 -12 1 -21 7 -21 6 0 11 -7 11
-15 0 -21 99 -228 148 -309 23 -37 42 -70 42 -72 0 -6 70 -103 100 -139 55
-67 165 -169 222 -206 90 -58 203 -108 280 -123 109 -22 140 -27 207 -32 96
-7 170 -7 296 1 117 7 140 -2 195 -72 19 -25 40 -50 45 -57 29 -34 122 -223
176 -358 62 -152 92 -238 176 -493 41 -126 77 -237 81 -245 3 -8 6 -19 8 -25
40 -147 259 -793 324 -957 l61 -155 399 0 c357 0 399 2 404 16 2 9 28 72 56
141 40 97 264 746 274 795 6 29 177 558 184 570 4 6 7 15 8 20 5 28 117 330
151 404 86 191 151 304 209 364 38 39 87 70 97 61 2 -3 51 -7 108 -10 57 -3
105 -7 107 -9 2 -2 15 0 28 5 16 6 24 6 24 -1 0 -6 4 -8 9 -5 5 4 47 8 93 11
45 2 94 7 108 10 14 3 40 8 59 11 92 15 265 86 327 133 12 9 32 23 45 31 80
50 235 238 323 390 36 62 142 280 151 310 4 14 11 30 16 36 6 8 -17 21 -74 43
-46 17 -88 31 -93 31 -6 0 -32 -35 -59 -77 -27 -43 -53 -79 -57 -81 -4 -2 -8
-8 -8 -13 0 -18 -123 -147 -180 -190 -75 -55 -208 -115 -278 -125 -15 -2 -52
-7 -82 -11 -114 -15 -421 -8 -520 12 -94 20 -219 25 -304 13 -59 -9 -75 -13
-141 -39 -16 -7 -32 -13 -35 -14 -16 -3 -74 -39 -89 -53 -9 -9 -33 -30 -53
-47 -39 -33 -118 -141 -118 -162 0 -7 -4 -13 -8 -13 -8 0 -33 -60 -38 -90 -2
-8 -7 -23 -13 -35 -5 -11 -20 -49 -32 -85 -43 -126 -56 -160 -63 -167 -3 -3
-6 -15 -6 -25 0 -10 -4 -26 -9 -36 -10 -17 -22 -48 -27 -67 -1 -5 -19 -55 -39
-110 -21 -55 -52 -143 -71 -195 -18 -52 -47 -133 -64 -180 -18 -47 -33 -89
-34 -95 -2 -5 -6 -17 -9 -25 -3 -8 -27 -73 -52 -145 -26 -71 -65 -179 -87
-240 -22 -60 -41 -117 -43 -125 -2 -8 -11 -33 -20 -54 -9 -22 -18 -47 -20 -55
-5 -20 -46 -135 -51 -140 -2 -2 -8 9 -15 25 -6 16 -15 38 -20 49 -4 11 -22 61
-39 110 -36 101 -61 171 -89 248 -11 28 -34 93 -51 142 -17 50 -35 99 -40 110
-5 11 -25 67 -45 125 -20 58 -48 137 -62 175 -27 74 -99 278 -153 430 -17 50
-38 104 -46 122 -8 17 -14 34 -14 38 0 15 -93 261 -118 310 -79 161 -225 269
-417 312 -48 10 -202 9 -268 -2 -40 -7 -94 -16 -122 -20 -70 -11 -425 -13
-431 -3 -3 5 -9 6 -13 4 -12 -8 -151 23 -211 46 -105 41 -209 118 -301 224
-32 37 -114 157 -112 164 1 3 -11 19 -25 36 l-27 31 -80 -33z"/>
</g>
</svg>
